M48
; DRILL file {KiCad (5.1.9)-1} date 02/05/23 22:42:45
; FORMAT={-:-/ absolute / metric / decimal}
; #@! TF.CreationDate,2023-02-05T22:42:45+09:00
; #@! TF.GenerationSoftware,Kicad,Pcbnew,(5.1.9)-1
FMAT,2
METRIC
T1C0.500
T2C3.200
%
G90
G05
T1
X82.6Y-80.0
X82.6Y-145.0
X83.303Y-78.303
X83.303Y-81.697
X83.303Y-143.303
X83.303Y-146.697
X85.0Y-77.6
X85.0Y-82.4
X85.0Y-142.6
X85.0Y-147.4
X86.697Y-78.303
X86.697Y-81.697
X86.697Y-143.303
X86.697Y-146.697
X87.4Y-80.0
X87.4Y-145.0
X177.6Y-80.0
X177.6Y-145.0
X178.303Y-78.303
X178.303Y-81.697
X178.303Y-143.303
X178.303Y-146.697
X180.0Y-77.6
X180.0Y-82.4
X180.0Y-142.6
X180.0Y-147.4
X181.697Y-78.303
X181.697Y-81.697
X181.697Y-143.303
X181.697Y-146.697
X182.4Y-80.0
X182.4Y-145.0
T2
X85.0Y-80.0
X85.0Y-145.0
X180.0Y-80.0
X180.0Y-145.0
T0
M30
